
<svg class="icon"  width="32px" height="28px" viewBox="0 0 32 28" version="1.1" xmlns="http://www.w3.org/2000/svg" xmlns:xlink="http://www.w3.org/1999/xlink">
    
    
    
    <g  stroke="none" stroke-width="1" fill="none" fill-rule="evenodd">
        <path class="fill-#FFFFFF" d="M24,15.5 L23.7049924,15.9631579 C23.6596067,16.0403509 23.5839637,16.1561404 23.4784418,16.3105263 C23.3721634,16.4652982 23.1868381,16.71 22.922466,17.0457895 C22.6573374,17.3815789 22.3759455,17.7115789 22.0767776,18.0357895 C21.7779879,18.36 21.4111195,18.7073684 20.9761725,19.0778947 C20.5412254,19.4484211 20.1006051,19.7710877 19.6543116,20.0447368 C19.2083964,20.3187719 18.7068835,20.5464912 18.1512859,20.7278947 C17.5949319,20.9092982 17.0450076,21 16.5,21 C15.9553707,21 15.4054463,20.9092982 14.8490923,20.7278947 C14.2931165,20.5464912 13.7919818,20.3187719 13.3456884,20.0447368 C12.8993949,19.7710877 12.4587746,19.4484211 12.0238275,19.0778947 C11.5888805,18.7073684 11.2220121,18.36 10.9232224,18.0357895 C10.6244327,17.7115789 10.3426626,17.3815789 10.0779123,17.0457895 C9.81316188,16.71 9.62783661,16.4652982 9.52193646,16.3105263 C9.41641452,16.1561404 9.34077156,16.0403509 9.29538578,15.9631579 L9,15.5 L9.29538578,15.0368421 C9.34077156,14.9596491 9.41641452,14.8438596 9.52193646,14.6894737 C9.62783661,14.5350877 9.81316188,14.29 10.0779123,13.9542105 C10.3426626,13.6184211 10.6244327,13.2884211 10.9232224,12.9642105 C11.2220121,12.64 11.5888805,12.2926316 12.0238275,11.9221053 C12.4587746,11.5515789 12.8993949,11.2292982 13.3456884,10.9552632 C13.7919818,10.6812281 14.2931165,10.4535088 14.8490923,10.2721053 C15.4054463,10.0907018 15.9553707,10 16.5,10 C17.0450076,10 17.5949319,10.0907018 18.1512859,10.2721053 C18.7068835,10.4535088 19.2083964,10.6812281 19.6543116,10.9552632 C20.1006051,11.2292982 20.5412254,11.5515789 20.9761725,11.9221053 C21.4111195,12.2926316 21.7779879,12.64 22.0767776,12.9642105 C22.3759455,13.2884211 22.6573374,13.6184211 22.922466,13.9542105 C23.1868381,14.29 23.3721634,14.5350877 23.4784418,14.6894737 C23.5839637,14.8438596 23.6596067,14.9596491 23.7049924,15.0368421 L24,15.5 L24,15.5 L24,15.5 L24,15.5 Z M15.0816944,19.4194737 C15.5431165,19.5854386 16.015885,19.6684211 16.5,19.6684211 C16.984115,19.6684211 17.4512103,19.5912281 17.9012859,19.4368421 C18.3513616,19.2824561 18.7314675,19.1068421 19.0416036,18.91 C19.3517398,18.7131579 19.6751135,18.437193 20.0117247,18.0821053 C20.3483359,17.7274035 20.5998487,17.435614 20.7666415,17.2078947 C20.9326778,16.9801754 21.1520424,16.665614 21.424357,16.2642105 C21.6970499,15.863193 21.8744327,15.6080702 21.9576399,15.5 C21.9504539,15.4926667 21.8422844,15.3479298 21.6346445,15.0657895 C21.4262481,14.7840351 21.2673979,14.5717544 21.1580938,14.4289474 C21.0480333,14.2861404 20.8835098,14.0815789 20.6641452,13.8152632 C20.4447806,13.5489474 20.2276853,13.3042456 20.0117247,13.08 C19.7961422,12.8561404 19.5748865,12.6477193 19.3483359,12.4547368 C19.7186082,13.0259649 19.9039334,13.6550877 19.9039334,14.3421053 C19.9039334,15.2992982 19.5711044,16.1175439 18.9058245,16.7968421 C18.2397882,17.4761404 17.4379728,17.8157895 16.5,17.8157895 C15.5620272,17.8157895 14.7602118,17.4761404 14.0945537,16.7968421 C13.4288956,16.1175439 13.0960666,15.2992982 13.0960666,14.3421053 C13.0960666,13.6859649 13.2700454,13.0761404 13.618003,12.5126316 C12.8464448,13.1842105 11.9916793,14.18 11.0537065,15.5 C11.1066566,15.577193 11.2598336,15.8010526 11.5136157,16.1715789 C11.7666415,16.5421053 11.9784418,16.8450877 12.1486384,17.0805263 C12.3192133,17.3159649 12.5760212,17.6150877 12.9201967,17.9778947 C13.2647504,18.3407018 13.5956884,18.6301754 13.9130106,18.8463158 C14.230711,19.0624561 14.6206505,19.2535088 15.0816944,19.4194737 C15.0816944,19.4194737 14.6206505,19.2535088 15.0816944,19.4194737 L15.0816944,19.4194737 L15.0816944,19.4194737 Z M15.1838124,13.6242105 L13.9697428,14.8515789 C14.3403933,15.8087719 14.9228442,16.5459649 15.7170953,17.0631579 L16.908472,15.8473684 C16.628593,15.6621053 16.3449319,15.3842105 16.0574887,15.0136842 C15.7700454,14.6431579 15.5544629,14.3189474 15.4107413,14.0410526 L15.1838124,13.6242105 L15.1838124,13.6242105 Z"  ></path>
    </g>
</svg>