
<svg class="icon"  width="32px" height="28px" viewBox="0 0 32 28" version="1.1" xmlns="http://www.w3.org/2000/svg" xmlns:xlink="http://www.w3.org/1999/xlink">
    
    
    
    <g  stroke="none" stroke-width="1" fill="none" fill-rule="evenodd">
        <path class="fill-#FFFFFF" d="M16.4092284,22.5 L14.7303328,22.5 L15.1497731,20.89125 C14.5295008,20.73375 13.9054463,20.465625 13.2779879,20.086875 C12.6497731,19.708125 12.1202723,19.325625 11.6894856,18.939375 C11.2579425,18.553125 10.8437973,18.1335 10.4466717,17.679375 C10.0499244,17.225625 9.77723147,16.89375 9.62972769,16.68375 C9.48260212,16.47375 9.37102874,16.3125 9.29538578,16.2 L9,15.75 L9.29538578,15.3 C9.34077156,15.225 9.41641452,15.1125 9.52193646,14.9625 C9.62783661,14.8125 9.81316188,14.574375 10.0779123,14.248125 C10.3426626,13.921875 10.6244327,13.60125 10.9232224,13.28625 C11.2220121,12.97125 11.5888805,12.63375 12.0238275,12.27375 C12.4587746,11.91375 12.8993949,11.600625 13.3460666,11.334375 C13.7919818,11.068125 14.2931165,10.846875 14.8490923,10.670625 C15.4054463,10.494375 15.9553707,10.40625 16.5,10.40625 C16.9614221,10.40625 17.419062,10.47 17.8729198,10.5975 L18.2931165,9 L19.9720121,9 L16.4092284,22.5 Z M15.5128593,19.53 L15.9326778,17.94375 C15.123298,17.80875 14.4481846,17.428125 13.9073374,16.801875 C13.3664902,16.175625 13.0960666,15.45 13.0960666,14.625 C13.0960666,13.9875 13.2700454,13.395 13.618003,12.8475 C12.8464448,13.5 11.9916793,14.4675 11.0537065,15.75 C12.6422088,17.865 14.1289713,19.125 15.5128593,19.53 C15.5128593,19.53 14.1289713,19.125 15.5128593,19.53 L15.5128593,19.53 L15.5128593,19.53 Z M15.1838124,13.9275 L13.9697428,15.12 C14.3403933,16.05 14.9228442,16.76625 15.7170953,17.26875 L16.2503782,16.74 L16.5117247,15.76125 C16.2844175,15.55125 16.0612708,15.2925 15.8419062,14.985 C15.6225416,14.6775 15.4565053,14.4225 15.3430408,14.22 L15.1838124,13.9275 L15.1838124,13.9275 L15.1838124,13.9275 L15.1838124,13.9275 Z M24,15.75 L23.7049924,16.2 C23.6524206,16.29 23.5559758,16.4325 23.4160363,16.6275 C23.2757186,16.8225 23.0359304,17.120625 22.6951589,17.521875 C22.3551437,17.923125 21.9935703,18.3075 21.6115734,18.675 C21.2295764,19.0425 20.76059,19.4175 20.2046142,19.8 C19.6490166,20.1825 19.0945537,20.47875 18.5427383,20.68875 L18.973525,19.0575 C19.1399395,18.945 19.3082451,18.8175 19.4784418,18.675 C19.6490166,18.5325 19.8229955,18.3675 20.0003782,18.18 C20.1781392,17.992875 20.3313162,17.8275 20.4599092,17.685 C20.5885023,17.5425 20.7435703,17.353125 20.9254917,17.116875 C21.1066566,16.880625 21.2333585,16.7175 21.3052194,16.6275 C21.3770802,16.5375 21.5018911,16.3725 21.6800303,16.1325 C21.857413,15.8925 21.9504539,15.765375 21.9576399,15.75 C21.2242814,14.7975 20.6944024,14.14125 20.3695159,13.78125 L20.8120272,12.13875 C21.3184569,12.54375 21.8158094,13.014375 22.3037065,13.550625 C22.7916036,14.086875 23.1225416,14.475 23.2965204,14.715 C23.4704992,14.955375 23.6066566,15.15 23.7049924,15.3 L24,15.75 L24,15.75 Z"  ></path>
    </g>
</svg>