
<svg class="icon"  width="32px" height="28px" viewBox="0 0 32 28" version="1.1" xmlns="http://www.w3.org/2000/svg" xmlns:xlink="http://www.w3.org/1999/xlink">
    
    
    
    <g  stroke="none" stroke-width="1" fill="none" fill-rule="evenodd">
        <path class="fill-white" d="M24,15.5 L23.7049924,15.9631579 C23.6596067,16.0403509 23.5839637,16.1561404 23.4784418,16.3105263 C23.3721634,16.4652982 23.1868381,16.71 22.922466,17.0457895 C22.6573374,17.3815789 22.3759455,17.7115789 22.0767776,18.0357895 C21.7779879,18.36 21.4111195,18.7073684 20.9761725,19.0778947 C20.5412254,19.4484211 20.1006051,19.7710877 19.6543116,20.0447368 C19.2083964,20.3187719 18.7068835,20.5464912 18.1512859,20.7278947 C17.5949319,20.9092982 17.0450076,21 16.5,21 C15.9553707,21 15.4054463,20.9092982 14.8490923,20.7278947 C14.2931165,20.5464912 13.7919818,20.3187719 13.3456884,20.0447368 C12.8993949,19.7710877 12.4587746,19.4484211 12.0238275,19.0778947 C11.5888805,18.7073684 11.2220121,18.36 10.9232224,18.0357895 C10.6244327,17.7115789 10.3426626,17.3815789 10.0779123,17.0457895 C9.81316188,16.71 9.62783661,16.4652982 9.52193646,16.3105263 C9.41641452,16.1561404 9.34077156,16.0403509 9.29538578,15.9631579 L9,15.5 L9.29538578,15.0368421 C9.34077156,14.9596491 9.41641452,14.8438596 9.52193646,14.6894737 C9.62783661,14.5350877 9.81316188,14.29 10.0779123,13.9542105 C10.3426626,13.6184211 10.6244327,13.2884211 10.9232224,12.9642105 C11.2220121,12.64 11.5888805,12.2926316 12.0238275,11.9221053 C12.4587746,11.5515789 12.8993949,11.2292982 13.3456884,10.9552632 C13.7919818,10.6812281 14.2931165,10.4535088 14.8490923,10.2721053 C15.4054463,10.0907018 15.9553707,10 16.5,10 C17.0450076,10 17.5949319,10.0907018 18.1512859,10.2721053 C18.7068835,10.4535088 19.2083964,10.6812281 19.6543116,10.9552632 C20.1006051,11.2292982 20.5412254,11.5515789 20.9761725,11.9221053 C21.4111195,12.2926316 21.7779879,12.64 22.0767776,12.9642105 C22.3759455,13.2884211 22.6573374,13.6184211 22.922466,13.9542105 C23.1868381,14.29 23.3721634,14.5350877 23.4784418,14.6894737 C23.5839637,14.8438596 23.6596067,14.9596491 23.7049924,15.0368421 L24,15.5 L24,15.5 L24,15.5 L24,15.5 Z"  ></path>
    </g>
</svg>