
<svg class="icon"  width="32px" height="28px" viewBox="0 0 32 28" version="1.1" xmlns="http://www.w3.org/2000/svg" xmlns:xlink="http://www.w3.org/1999/xlink">
    
    
    
    <g  stroke="none" stroke-width="1" fill="none" fill-rule="evenodd">
        <path class="fill-white" d="M25,6 L25,24 L7,24 L7,6 L25,6 Z M23,8 L9,8 L9,22 L23,22 L23,8 Z M13,16 C14.1045695,16 15,16.8954305 15,18 C15,19.1045695 14.1045695,20 13,20 C11.8954305,20 11,19.1045695 11,18 C11,16.8954305 11.8954305,16 13,16 Z M19,16 C20.1045695,16 21,16.8954305 21,18 C21,19.1045695 20.1045695,20 19,20 C17.8954305,20 17,19.1045695 17,18 C17,16.8954305 17.8954305,16 19,16 Z M16,10 C17.1045695,10 18,10.8954305 18,12 C18,13.1045695 17.1045695,14 16,14 C14.8954305,14 14,13.1045695 14,12 C14,10.8954305 14.8954305,10 16,10 Z"  ></path>
    </g>
</svg>