
<svg class="icon"  width="32px" height="28px" viewBox="0 0 32 28" version="1.1" xmlns="http://www.w3.org/2000/svg" xmlns:xlink="http://www.w3.org/1999/xlink">
    
    
    
    <g  stroke="none" stroke-width="1" fill="none" fill-rule="evenodd">
        <path class="fill-#FFFFFF" d="M8,19.6208638 C8,18.7115557 8.32248432,17.9351502 8.96745297,17.289693 L9.77366378,16.4839708 C10.0570591,17.0312169 10.4235186,17.5247157 10.8730422,17.9639784 L11.136893,18.2278292 L9.74434702,19.6208638 L13.3649665,23.255653 L19.0670757,17.5535438 L15.9594994,14.4464562 L17.4991178,12.9068379 C17.5665463,12.9561877 17.6603599,13.0392519 17.777627,13.1560303 L19.8444583,15.2233503 C20.4889384,15.8683189 20.8114227,16.645213 20.8114227,17.5535438 C20.8114227,18.4628519 20.4889384,19.2392573 19.8444583,19.8847146 L15.6956486,24.0330356 C15.0702245,24.6775157 14.2933304,25 13.3649665,25 C12.456147,25 11.6797416,24.6775157 11.0342843,24.0330356 L8.96745297,21.9662043 C8.32248432,21.320747 8,20.5394555 8,19.6208638 C8,19.6208638 8,20.5394555 8,19.6208638 L8,19.6208638 L8,19.6208638 Z M12.0750292,16.7766497 C11.4305491,16.1316811 11.1080648,15.354787 11.1080648,14.4464562 C11.1080648,13.5176036 11.4305491,12.7411982 12.0750292,12.1152854 L16.2233503,7.96696436 C16.849263,7.32248432 17.6256684,7 18.554521,7 C19.4628519,7 20.2397459,7.32248432 20.8847146,7.96696436 L22.9520345,10.0342843 C23.5965146,10.679253 23.9189989,11.456147 23.9189989,12.3644779 C23.9189989,12.7846847 23.7846304,13.2537528 23.5158935,13.7721708 C23.2466679,14.2901002 22.9417737,14.7195907 22.5997448,15.0621081 L22.1751405,15.4872011 C21.871712,14.9692717 21.4954803,14.4855452 21.0459567,14.0360216 L20.7821059,13.7721708 L22.1751405,12.3644779 L18.554521,8.74434702 L12.8524118,14.4464562 L15.9594994,17.5535438 L14.4203697,19.0931621 L14.1418605,18.8439697 L12.0750292,16.7766497 L12.0750292,16.7766497 Z"  ></path>
    </g>
</svg>