
<svg class="icon"  width="32px" height="28px" viewBox="0 0 32 28" version="1.1" xmlns="http://www.w3.org/2000/svg" xmlns:xlink="http://www.w3.org/1999/xlink">
    
    
    
    <g  stroke="none" stroke-width="1" fill="none" fill-rule="evenodd">
        <path class="fill-#FFFFFF" d="M23.4545455,13 C23.8774848,13 24.2406667,13.1475 24.5446061,13.4425 C24.8480303,13.7375 25,14.09 25,14.5 L25,23.5 C25,23.91 24.8480303,24.2625 24.5446061,24.5575 C24.2406667,24.8525 23.8774848,25 23.4545455,25 L9.54545455,25 C9.1230303,25 8.75984848,24.8525 8.45590909,24.5575 C8.1519697,24.2625 8,23.91 8,23.5 L8,14.5 C8,14.09 8.1519697,13.7375 8.45590909,13.4425 C8.75984848,13.1475 9.1230303,13 9.54545455,13 L11.0909091,13 L11.0909091,10 C11.0909091,9.1795 11.3948485,8.4745 12.0027273,7.885 C12.6106061,7.295 13.3369697,7 14.1818182,7 L18.8181818,7 C19.6630303,7 20.3893939,7.295 20.9977879,7.885 C21.6051515,8.4745 21.9090909,9.1795 21.9090909,10 L21.9090909,13 L23.4545455,13 Z M14.1818182,13 L18.8181818,13 L18.8181818,10.75 C18.8181818,10.54 18.7434848,10.3625 18.5940909,10.217 C18.4452121,10.0725 18.2618182,10 18.0454545,10 L14.9545455,10 C14.7381818,10 14.555303,10.0725 14.4064242,10.217 C14.2565152,10.3625 14.1818182,10.54 14.1818182,10.75 L14.1818182,13 L14.1818182,13 Z"  ></path>
    </g>
</svg>