
<svg class="icon add-louver"  width="25px" height="18px" viewBox="0 0 25 18" version="1.1" xmlns="http://www.w3.org/2000/svg" xmlns:xlink="http://www.w3.org/1999/xlink">
    
    
    
    <g  stroke="none" stroke-width="1" fill="none" fill-rule="evenodd">
        <g class="fill-green"  transform="translate(3.000000, 6.000000)" >
            <polygon  points="4 2 6 2 6 4 4 4 4 6 2 6 2 4 8.43769499e-15 4 8.43769499e-15 2 2 2 2 -8.8817842e-16 4 -8.8817842e-16"></polygon>
        </g>
        <polygon class="fill-green"   points="12 0 25 0 22 4 15 4"></polygon>
        <polygon class="fill-green"   points="12 6 25 6 22 10 15 10"></polygon>
        <polygon class="fill-green"   points="12 12 25 12 22 16 15 16"></polygon>
        <rect class="stroke-gray"   x="12.5" y="0.5" width="12" height="17"></rect>
    </g>
</svg>