
<svg class="icon"  width="28px" height="18px" viewBox="0 0 28 18" version="1.1" xmlns="http://www.w3.org/2000/svg" xmlns:xlink="http://www.w3.org/1999/xlink">
    
    
    
    <g  stroke="none" stroke-width="1" fill="none" fill-rule="evenodd">
        <rect class="stroke-gray"   x="0.5" y="0.5" width="24" height="17"></rect>
        <rect class="fill-green"   transform="translate(9.500000, 7.000000) scale(-1, 1) translate(-9.500000, -7.000000) " x="9" y="6" width="1" height="2"></rect>
        <rect class="fill-green"   transform="translate(9.500000, 4.000000) scale(-1, 1) translate(-9.500000, -4.000000) " x="9" y="3" width="1" height="2"></rect>
        <rect class="fill-green"   transform="translate(9.500000, 1.000000) scale(-1, 1) translate(-9.500000, -1.000000) " x="9" y="0" width="1" height="2"></rect>
        <rect class="fill-green"   transform="translate(15.500000, 14.000000) scale(-1, 1) translate(-15.500000, -14.000000) " x="15" y="13" width="1" height="2"></rect>
        <rect class="fill-green"   transform="translate(15.500000, 17.000000) scale(-1, 1) translate(-15.500000, -17.000000) " x="15" y="16" width="1" height="2"></rect>
        <rect class="fill-green"   transform="translate(15.500000, 11.000000) scale(-1, 1) translate(-15.500000, -11.000000) " x="15" y="10" width="1" height="2"></rect>
        <rect class="fill-green"   x="1" y="9" width="2" height="1"></rect>
        <rect class="fill-green"   x="4" y="9" width="2" height="1"></rect>
        <rect class="fill-green"   x="7" y="9" width="2" height="1"></rect>
        <rect class="fill-green"   x="10" y="9" width="2" height="1"></rect>
        <rect class="fill-green"   x="13" y="9" width="2" height="1"></rect>
        <rect class="fill-green"   x="16" y="9" width="2" height="1"></rect>
        <rect class="fill-green"   x="19" y="9" width="2" height="1"></rect>
        <rect class="fill-green"   x="22" y="9" width="2" height="1"></rect>
    </g>
</svg>