
<svg class="icon"  width="26px" height="18px" viewBox="0 0 26 18" version="1.1" xmlns="http://www.w3.org/2000/svg" xmlns:xlink="http://www.w3.org/1999/xlink">
    
    
    
    <g  stroke="none" stroke-width="1" fill="none" fill-rule="evenodd">
        <rect class="fill-#D8D8D8"  stroke="#979797"  x="12.5" y="1.5" width="1" height="15"></rect>
        <rect class="fill-#FFFFFF"  stroke="#878687"  x="13.5" y="8.5" width="10" height="1"></rect>
        <rect class="fill-#FFFFFF"  stroke="#878687"  x="1.5" y="8.5" width="1" height="1"></rect>
        <rect class="fill-#FFFFFF"  stroke="#878687"  x="4.5" y="8.5" width="1" height="1"></rect>
        <rect class="fill-#FFFFFF"  stroke="#878687"  x="7.5" y="8.5" width="1" height="1"></rect>
        <rect class="fill-#FFFFFF"  stroke="#878687"  x="10.5" y="8.5" width="1" height="1"></rect>
        <rect class="stroke-gray"   x="0.5" y="0.5" width="24" height="17"></rect>
        <g class="fill-green"  transform="translate(11.000000, 7.000000)" >
            <path d="M0,0 L3,0 L3,3 L0,3 L0,0 Z M1,1 L1,2 L2,2 L2,1 L1,1 Z" ></path>
        </g>
        <g class="fill-green"  transform="translate(23.000000, 7.000000)" >
            <path d="M0,0 L3,0 L3,3 L0,3 L0,0 Z M1,1 L1,2 L2,2 L2,1 L1,1 Z" ></path>
        </g>
    </g>
</svg>