
<svg class="icon"  width="25px" height="18px" viewBox="0 0 25 18" version="1.1" xmlns="http://www.w3.org/2000/svg" xmlns:xlink="http://www.w3.org/1999/xlink">
    
    
    
    <g  stroke="none" stroke-width="1" fill="none" fill-rule="evenodd">
        <rect class="fill-gray"   x="1" y="8" width="23" height="1"></rect>
        <rect class="stroke-gray"   x="0.5" y="0.5" width="23" height="17"></rect>
        <g class="fill-green"  transform="translate(5.000000, 3.000000)" >
            <path d="M0,0 L3,0 L3,3 L0,3 L0,0 Z M1,1 L1,2 L2,2 L2,1 L1,1 Z" ></path>
        </g>
        <g class="fill-green"  transform="translate(17.000000, 3.000000)" >
            <path d="M0,0 L3,0 L3,3 L0,3 L0,0 Z M1,1 L1,2 L2,2 L2,1 L1,1 Z" ></path>
        </g>
        <rect class="fill-green"   x="8" y="4" width="9" height="1"></rect>
        <rect class="fill-red"   x="12" y="1" width="1" height="7"></rect>
        <rect class="fill-gray"   x="12" y="9" width="1" height="8"></rect>
    </g>
</svg>