
<svg class="icon"  width="25px" height="18px" viewBox="0 0 25 18" version="1.1" xmlns="http://www.w3.org/2000/svg" xmlns:xlink="http://www.w3.org/1999/xlink">
    
    
    
    <g  stroke="none" stroke-width="1" fill="none" fill-rule="evenodd">
        <rect class="stroke-gray"   x="0.5" y="0.5" width="24" height="17"></rect>
        <g class="fill-green"  transform="translate(5.000000, 3.000000)" >
            <path d="M0,0 L3,0 L3,3 L0,3 L0,0 Z M1,1 L1,2 L2,2 L2,1 L1,1 Z" ></path>
        </g>
        <rect class="fill-red"   x="1" y="8" width="11" height="1"></rect>
        <rect class="fill-green"   transform="translate(6.500000, 8.500000) scale(1, -1) translate(-6.500000, -8.500000) " x="6" y="6" width="1" height="5"></rect>
        <g class="stroke-green"  transform="translate(6.500000, 13.000000) rotate(-270.000000) translate(-6.500000, -13.000000) translate(4.500000, 9.500000)" >
            <polygon  points="0.5 0.5 3.5 3.5 0.5 6.5"></polygon>
        </g>
        <rect class="fill-gray"   x="13" y="8" width="11" height="1"></rect>
        <rect class="fill-gray"   x="12" y="1" width="1" height="16"></rect>
    </g>
</svg>