
<svg class="icon"  width="27px" height="10px" viewBox="0 0 27 10" version="1.1" xmlns="http://www.w3.org/2000/svg" xmlns:xlink="http://www.w3.org/1999/xlink">
    
    
    
    <g  stroke="none" stroke-width="1" fill="none" fill-rule="evenodd">
        <rect class="fill-gray"   transform="translate(5.242641, 5.242641) rotate(-135.000000) translate(-5.242641, -5.242641) " x="-0.257359313" y="4.74264069" width="11" height="1"></rect>
        <rect class="fill-gray"   x="8" y="8" width="11" height="1"></rect>
        <path class="stroke-#979797" d="M18.5,8.5 L25.5,1.5"  ></path>
        <g class="fill-green"  >
            <path d="M0,0 L3,0 L3,3 L0,3 L0,0 Z M1,1 L1,2 L2,2 L2,1 L1,1 Z" ></path>
        </g>
        <g class="fill-green"  transform="translate(7.000000, 7.000000)" >
            <path d="M0,0 L3,0 L3,3 L0,3 L0,0 Z M1,1 L1,2 L2,2 L2,1 L1,1 Z" ></path>
        </g>
        <g class="fill-green"  transform="translate(17.000000, 7.000000)" >
            <path d="M0,0 L3,0 L3,3 L0,3 L0,0 Z M1,1 L1,2 L2,2 L2,1 L1,1 Z" ></path>
        </g>
        <g class="fill-green"  transform="translate(24.000000, 0.000000)" >
            <path d="M0,0 L3,0 L3,3 L0,3 L0,0 Z M1,1 L1,2 L2,2 L2,1 L1,1 Z" ></path>
        </g>
    </g>
</svg>