
<svg class="icon"  width="27px" height="10px" viewBox="0 0 27 10" version="1.1" xmlns="http://www.w3.org/2000/svg" xmlns:xlink="http://www.w3.org/1999/xlink">
    
    
    
    <g  stroke="none" stroke-width="1" fill="none" fill-rule="evenodd">
        <polyline class="stroke-gray"   points="1 1 8.5 8.5 18.5 8.5 26 1"></polyline>
        <g class="fill-green"  >
            <path d="M0,0 L3,0 L3,3 L0,3 L0,0 Z M1,1 L1,2 L2,2 L2,1 L1,1 Z" ></path>
        </g>
        <g class="fill-green"  transform="translate(7.000000, 7.000000)" >
            <path d="M0,0 L3,0 L3,3 L0,3 L0,0 Z M1,1 L1,2 L2,2 L2,1 L1,1 Z" ></path>
        </g>
        <g class="fill-green"  transform="translate(17.000000, 7.000000)" >
            <path d="M0,0 L3,0 L3,3 L0,3 L0,0 Z M1,1 L1,2 L2,2 L2,1 L1,1 Z" ></path>
        </g>
        <g class="fill-green"  transform="translate(24.000000, 0.000000)" >
            <path d="M0,0 L3,0 L3,3 L0,3 L0,0 Z M1,1 L1,2 L2,2 L2,1 L1,1 Z" ></path>
        </g>
    </g>
</svg>