
<svg class="icon"  width="32px" height="28px" viewBox="0 0 32 28" version="1.1" xmlns="http://www.w3.org/2000/svg" xmlns:xlink="http://www.w3.org/1999/xlink">
    
    
    
    <g  stroke="none" stroke-width="1" fill="none" fill-rule="evenodd">
        <path class="fill-white" d="M10,7 L23,7 L23,25 L10,25 L10,7 Z M15,20 L15,23 L18,23 L18,20 L15,20 Z M15,16 L15,19 L18,19 L18,16 L15,16 Z M15,12 L15,15 L18,15 L18,12 L15,12 Z M19,20 L19,23 L22,23 L22,20 L19,20 Z M19,16 L19,19 L22,19 L22,16 L19,16 Z M19,12 L19,15 L22,15 L22,12 L19,12 Z M11,20 L11,23 L14,23 L14,20 L11,20 Z M11,16 L11,19 L14,19 L14,16 L11,16 Z M11,12 L11,15 L14,15 L14,12 L11,12 Z M11,8 L11,11 L22,11 L22,8 L11,8 Z"  ></path>
    </g>
</svg>