
<svg class="icon"  width="32px" height="28px" viewBox="0 0 32 28" version="1.1" xmlns="http://www.w3.org/2000/svg" xmlns:xlink="http://www.w3.org/1999/xlink">
    
    
    
    <g  stroke="none" stroke-width="1" fill="none" fill-rule="evenodd">
        <path class="fill-white" d="M12,7 L25,7 L25,10 L12,10 L12,7 Z M12,14 L25,14 L25,17 L12,17 L12,14 Z M25,21 L25,24 L12,24 L12,21 L25,21 Z M10,21 L10,24 L7,24 L7,21 L10,21 Z M10,14 L10,17 L7,17 L7,14 L10,14 Z M10,7 L10,10 L7,10 L7,7 L10,7 Z"  ></path>
    </g>
</svg>