
<svg class="icon"  width="32px" height="28px" viewBox="0 0 32 28" version="1.1" xmlns="http://www.w3.org/2000/svg" xmlns:xlink="http://www.w3.org/1999/xlink">
    
    
    
    <g  stroke="none" stroke-width="1" fill="none" fill-rule="evenodd">
        <path class="fill-white" d="M25.558,22.5575 C25.263,22.8525 24.9105,23 24.5,23 L9.5,23 C9.09,23 8.7375,22.8525 8.4425,22.5575 C8.1475,22.2625 8,21.91 8,21.5 L8,12.5 C8,12.09 8.1475,11.7375 8.4425,11.4425 C8.7375,11.1475 9.09,11 9.5,11 L11.75,11 L11.93,10.7 C12.04,10.4905 12.21,10.2375 12.44,9.9425 C12.67,9.6475 12.93,9.3525 13.22,9.0575 C13.51,8.7625 13.86,8.5125 14.27,8.3075 C14.68,8.1025 15.09,8 15.5,8 L18.5,8 C18.92,8 19.3375,8.1075 19.7525,8.3225 C20.167,8.537 20.513,8.7775 20.788,9.042 C21.0625,9.3075 21.3275,9.6125 21.5825,9.957 C21.8375,10.303 22.0025,10.542 22.0775,10.678 C22.1525,10.8125 22.21,10.92 22.25,11 L24.5,11 C24.9105,11 25.263,11.1475 25.558,11.4425 C25.8525,11.7375 26,12.09 26,12.5 L26,21.5 C26,21.91 25.8525,22.2625 25.558,22.5575 C25.558,22.5575 25.8525,22.2625 25.558,22.5575 L25.558,22.5575 L25.558,22.5575 Z M17,13.34 C16,13.34 15.14,13.7 14.42,14.42 C13.7005,15.1395 13.34,16 13.34,17 C13.34,18 13.7005,18.8595 14.42,19.58 C15.14,20.3 16,20.66 17,20.66 C18,20.66 18.8605,20.3 19.58,19.58 C20.3,18.8595 20.6605,18 20.6605,17 C20.6605,16 20.3,15.1395 19.58,14.42 C18.8605,13.7 18,13.34 17,13.34 L17,13.34 L17,13.34 L17,13.34 Z M17,18.59 C16.5595,18.59 16.1845,18.4345 15.875,18.125 C15.565,17.8145 15.4105,17.4395 15.4105,17 C15.4105,16.5595 15.565,16.1845 15.875,15.875 C16.1845,15.5645 16.5595,15.41 17,15.41 C17.44,15.41 17.815,15.5645 18.125,15.875 C18.4345,16.1845 18.59,16.5595 18.59,17 C18.59,17.4395 18.4345,17.8145 18.125,18.125 C17.815,18.4345 17.44,18.59 17,18.59 L17,18.59 L17,18.59 L17,18.59 Z M21.5,14 L23,14 L23,12.5 L21.5,12.5 L21.5,12.5 L21.5,14 L21.5,14 Z"  ></path>
    </g>
</svg>