
<svg class="icon"  width="32px" height="28px" viewBox="0 0 32 28" version="1.1" xmlns="http://www.w3.org/2000/svg" xmlns:xlink="http://www.w3.org/1999/xlink">
    
    
    
    <g  stroke="none" stroke-width="1" fill="none" fill-rule="evenodd">
        <path class="fill-white" d="M24.775,11.455 C24.925,11.6045 25,11.785 25,11.995 C25,12.205 24.925,12.38 24.775,12.5195 C24.635,12.67 24.46,12.745 24.25,12.745 C24.04,12.745 23.8655,12.67 23.7255,12.5195 L23.185,11.995 L19,16 L19,20.5 L15.8205,17.3495 L12.7005,20.455 L7,25 L11.545,19.3 L14.65,16.1795 L11.5,13 L16,13 L20.005,8.8145 L19.48,8.2745 C19.33,8.135 19.255,7.96 19.255,7.75 C19.255,7.54 19.33,7.3655 19.48,7.2245 C19.6205,7.075 19.795,7 20.005,7 C20.215,7 20.39,7.075 20.5305,7.2245 L24.775,11.455 Z"  ></path>
    </g>
</svg>