
<svg class="icon"  width="28px" height="18px" viewBox="0 0 28 18" version="1.1" xmlns="http://www.w3.org/2000/svg" xmlns:xlink="http://www.w3.org/1999/xlink">
    
    
    
    <g  stroke="none" stroke-width="1" fill="none" fill-rule="evenodd">
        <rect class="stroke-gray"   x="0.5" y="0.5" width="24" height="17"></rect>
        <rect class="fill-gray"   x="1" y="8" width="11" height="1"></rect>
        <rect class="fill-gray"   transform="translate(12.500000, 9.000000) scale(-1, 1) translate(-12.500000, -9.000000) " x="12" y="1" width="1" height="16"></rect>
        <rect class="fill-green"   x="13" y="8" width="2" height="1"></rect>
        <rect class="fill-green"   x="16" y="8" width="2" height="1"></rect>
        <rect class="fill-green"   x="19" y="8" width="2" height="1"></rect>
        <g class="stroke-green"  transform="translate(23.000000, 8.500000) rotate(-360.000000) translate(-23.000000, -8.500000) translate(21.000000, 5.000000)" >
            <polygon  points="0.5 0.5 3.5 3.5 0.5 6.5"></polygon>
        </g>
        <g class="fill-green"  transform="translate(11.000000, 7.000000)" >
            <path d="M3,0 L3,3 L0,3 L0,0 L3,0 Z M2,1 L1,1 L1,2 L2,2 L2,1 Z" ></path>
        </g>
    </g>
</svg>