
<svg class="icon"  width="28px" height="18px" viewBox="0 0 28 18" version="1.1" xmlns="http://www.w3.org/2000/svg" xmlns:xlink="http://www.w3.org/1999/xlink">
    
    
    
    <g  stroke="none" stroke-width="1" fill="none" fill-rule="evenodd">
        <path class="stroke-gray" d="M1.5,5.19945448 L1.5,17.5 L13.5,17.5 L13.5,5.39622566 L7.49331978,1.58779438 L1.5,5.19945448 Z"  ></path>
        <g class="fill-green"  transform="translate(0.000000, 4.000000)" >
            <path d="M3,0 L3,3 L0,3 L0,0 L3,0 Z M2,1 L1,1 L1,2 L2,2 L2,1 Z" ></path>
        </g>
        <g class="fill-green"  transform="translate(6.000000, 0.000000)" >
            <path d="M3,0 L3,3 L0,3 L0,0 L3,0 Z M2,1 L1,1 L1,2 L2,2 L2,1 Z" ></path>
        </g>
        <g class="fill-green"  transform="translate(12.000000, 4.000000)" >
            <path d="M3,0 L3,3 L0,3 L0,0 L3,0 Z M2,1 L1,1 L1,2 L2,2 L2,1 Z" ></path>
        </g>
    </g>
</svg>