
<svg class="icon"  width="26px" height="18px" viewBox="0 0 26 18" version="1.1" xmlns="http://www.w3.org/2000/svg" xmlns:xlink="http://www.w3.org/1999/xlink">
    
    
    
    <g  stroke="none" stroke-width="1" fill="none" fill-rule="evenodd">
        <rect class="fill-gray"   x="12" y="1" width="1" height="7"></rect>
        <rect class="fill-gray"   x="1" y="8" width="23" height="1"></rect>
        <rect class="stroke-gray"   x="0.5" y="1.5" width="24" height="16"></rect>
        <rect class="fill-#FFFFFF"  stroke="#878687"  transform="translate(12.500000, 16.000000) scale(-1, 1) translate(-12.500000, -16.000000) " x="12.5" y="15.5" width="1" height="1"></rect>
        <rect class="fill-#FFFFFF"  stroke="#878687"  transform="translate(12.500000, 13.000000) scale(-1, 1) translate(-12.500000, -13.000000) " x="12.5" y="12.5" width="1" height="1"></rect>
        <rect class="fill-#FFFFFF"  stroke="#878687"  transform="translate(12.500000, 10.000000) scale(-1, 1) translate(-12.500000, -10.000000) " x="12.5" y="9.5" width="1" height="1"></rect>
        <g class="fill-green"  transform="translate(11.000000, 7.000000)" >
            <path d="M0,0 L3,0 L3,3 L0,3 L0,0 Z M1,1 L1,2 L2,2 L2,1 L1,1 Z" ></path>
        </g>
        <g class="fill-green"  transform="translate(11.000000, 0.000000)" >
            <path d="M0,0 L3,0 L3,3 L0,3 L0,0 Z M1,1 L1,2 L2,2 L2,1 L1,1 Z" ></path>
        </g>
    </g>
</svg>