
<svg class="icon"  width="28px" height="18px" viewBox="0 0 28 18" version="1.1" xmlns="http://www.w3.org/2000/svg" xmlns:xlink="http://www.w3.org/1999/xlink">
    
    
    
    <g  stroke="none" stroke-width="1" fill="none" fill-rule="evenodd">
        <rect class="stroke-gray"   x="0.5" y="0.5" width="24" height="17"></rect>
        <g class="fill-green"  transform="translate(5.000000, 3.000000)" >
            <path d="M3,0 L3,3 L0,3 L0,0 L3,0 Z M2,1 L1,1 L1,2 L2,2 L2,1 Z" ></path>
        </g>
        <g class="fill-green"  transform="translate(17.000000, 3.000000)" >
            <path d="M3,0 L3,3 L0,3 L0,0 L3,0 Z M2,1 L1,1 L1,2 L2,2 L2,1 Z" ></path>
        </g>
        <g class="fill-green"  transform="translate(17.000000, 12.000000)" >
            <path d="M3,0 L3,3 L0,3 L0,0 L3,0 Z M2,1 L1,1 L1,2 L2,2 L2,1 Z" ></path>
        </g>
        <g class="fill-green"  transform="translate(5.000000, 12.000000)" >
            <path d="M3,0 L3,3 L0,3 L0,0 L3,0 Z M2,1 L1,1 L1,2 L2,2 L2,1 Z" ></path>
        </g>
        <rect class="fill-red"   x="12" y="1" width="1" height="16"></rect>
        <rect class="fill-red"   x="1" y="8" width="23" height="1"></rect>
        <rect class="fill-green"   transform="translate(6.500000, 9.000000) scale(1, -1) translate(-6.500000, -9.000000) " x="6" y="6" width="1" height="6"></rect>
        <rect class="fill-green"   transform="translate(18.500000, 9.000000) scale(1, -1) translate(-18.500000, -9.000000) " x="18" y="6" width="1" height="6"></rect>
        <rect class="fill-green"   x="8" y="4" width="9" height="1"></rect>
        <rect class="fill-green"   x="8" y="13" width="9" height="1"></rect>
    </g>
</svg>