<?xml version="1.0" encoding="UTF-8"?>
<svg width="32px" height="28px" viewBox="0 0 32 28" version="1.1" xmlns="http://www.w3.org/2000/svg" xmlns:xlink="http://www.w3.org/1999/xlink">
    <!-- Generator: Sketch 60.1 (88133) - https://sketch.com -->
    <title>_Align Middle</title>
    <desc>Created with Sketch.</desc>
    <g id="_Align-Middle" stroke="none" stroke-width="1" fill="none" fill-rule="evenodd">
        <path d="M15,22 L8,22 L8,18 L5,18 L5,17 L8,17 L8,13 L15,13 L15,17 L17,17 L17,8 L24,8 L24,17 L27,17 L27,18 L24,18 L24,27 L17,27 L17,18 L15,18 L15,22 Z M9,21 L14,21 L14,18 L9,18 L9,21 Z M14,14 L9,14 L9,17 L14,17 L14,14 Z" id="Combined-Shape" fill="#FFFFFF"></path>
    </g>
</svg>