<?xml version="1.0" encoding="UTF-8"?>
<svg width="32px" height="28px" viewBox="0 0 32 28" version="1.1" xmlns="http://www.w3.org/2000/svg" xmlns:xlink="http://www.w3.org/1999/xlink">
    <!-- Generator: Sketch 60.1 (88133) - https://sketch.com -->
    <title>_Rotate Clockwise</title>
    <desc>Created with Sketch.</desc>
    <g id="_Rotate-Clockwise" stroke="none" stroke-width="1" fill="none" fill-rule="evenodd">
        <path d="M24.3297421,19.6091759 C23.8824124,20.6949873 23.2784437,21.6329652 22.517345,22.4231096 C21.7562462,23.213254 20.8532394,23.8402719 19.8068513,24.3041631 C18.7614454,24.7685641 17.6585887,25 16.4997545,25 C15.3409203,25 14.2385546,24.7685641 13.1931487,24.3041631 C12.1467606,23.8402719 11.2432628,23.213254 10.482164,22.4231096 C9.72155628,21.6329652 9.11709656,20.6949873 8.67025794,19.6091759 C8.22341931,18.5233645 8,17.3789295 8,16.1758709 C8,14.9728122 8.22341931,13.8283772 8.67025794,12.7425658 C9.11709656,11.6567545 9.72155628,10.7187766 10.482164,9.92863212 C11.2432628,9.13848768 12.1467606,8.51146984 13.1931487,8.04757859 C14.2385546,7.58368734 15.3409203,7.35174172 16.4997545,7.35174172 C18.444239,7.35174172 20.1874007,7.97366185 21.7297305,9.21750212 L23.8652263,7 L23.8652263,13.1172472 L17.9728488,13.1172472 L20.1235666,10.884452 C19.0432974,10.0586236 17.83536,9.64570943 16.4997545,9.64570943 C14.7615031,9.64570943 13.2785881,10.2829227 12.0510095,11.5573492 C10.8234309,12.8317757 10.2096415,14.3712829 10.2096415,16.1758709 C10.2096415,17.9804588 10.8234309,19.519966 12.0510095,20.7943925 C13.2785881,22.0693288 14.7615031,22.7060323 16.4997545,22.7060323 C18.2380058,22.7060323 19.7209208,22.0693288 20.9489905,20.7943925 C22.1765691,19.519966 22.7903585,17.9804588 22.7903585,16.1758709 L25,16.1758709 C25,17.3789295 24.7765807,18.5233645 24.3297421,19.6091759 L286.5,161" id="Fill-36" fill="#FFFFFF"></path>
    </g>
</svg>