<?xml version="1.0" encoding="UTF-8"?>
<svg width="28px" height="18px" viewBox="0 0 28 18" version="1.1" xmlns="http://www.w3.org/2000/svg" xmlns:xlink="http://www.w3.org/1999/xlink">
    <!-- Generator: Sketch 60.1 (88133) - https://sketch.com -->
    <title>Arch Top</title>
    <desc>Created with Sketch.</desc>
    <g id="Arch-Top" stroke="none" stroke-width="1" fill="none" fill-rule="evenodd">
        <path d="M1.5,17.5 L13.5,17.5 L13.5,5 C13.5,2.66234473 10.2564829,0.5 7.5,0.5 C4.74351709,0.5 1.5,2.66234473 1.5,5 L1.5,17.5 Z" id="Path" stroke="#878787"></path>
        <g id="Icon_Point" transform="translate(0.000000, 4.000000)" fill="#0CFC04">
            <path d="M3,0 L3,3 L0,3 L0,0 L3,0 Z M2,1 L1,1 L1,2 L2,2 L2,1 Z" id="Combined-Shape"></path>
        </g>
        <g id="Icon_Point" transform="translate(12.000000, 4.000000)" fill="#0CFC04">
            <path d="M3,0 L3,3 L0,3 L0,0 L3,0 Z M2,1 L1,1 L1,2 L2,2 L2,1 Z" id="Combined-Shape"></path>
        </g>
    </g>
</svg>