<?xml version="1.0" encoding="UTF-8"?>
<svg width="28px" height="18px" viewBox="0 0 28 18" version="1.1" xmlns="http://www.w3.org/2000/svg" xmlns:xlink="http://www.w3.org/1999/xlink">
    <!-- Generator: Sketch 60.1 (88133) - https://sketch.com -->
    <title>Define Pattern</title>
    <desc>Created with Sketch.</desc>
    <g id="Define-Pattern" stroke="none" stroke-width="1" fill="none" fill-rule="evenodd">
        <rect id="Rectangle-Copy-5" stroke="#878787" x="0.5" y="0.5" width="24" height="17"></rect>
        <rect id="Rectangle-Copy-2" fill="#0CFC04" transform="translate(9.500000, 7.000000) scale(-1, 1) translate(-9.500000, -7.000000) " x="9" y="6" width="1" height="2"></rect>
        <rect id="Rectangle-Copy-3" fill="#0CFC04" transform="translate(9.500000, 4.000000) scale(-1, 1) translate(-9.500000, -4.000000) " x="9" y="3" width="1" height="2"></rect>
        <rect id="Rectangle-Copy-4" fill="#0CFC04" transform="translate(9.500000, 1.000000) scale(-1, 1) translate(-9.500000, -1.000000) " x="9" y="0" width="1" height="2"></rect>
        <rect id="Rectangle-Copy-7" fill="#0CFC04" transform="translate(15.500000, 14.000000) scale(-1, 1) translate(-15.500000, -14.000000) " x="15" y="13" width="1" height="2"></rect>
        <rect id="Rectangle-Copy-15" fill="#0CFC04" transform="translate(15.500000, 17.000000) scale(-1, 1) translate(-15.500000, -17.000000) " x="15" y="16" width="1" height="2"></rect>
        <rect id="Rectangle-Copy-8" fill="#0CFC04" transform="translate(15.500000, 11.000000) scale(-1, 1) translate(-15.500000, -11.000000) " x="15" y="10" width="1" height="2"></rect>
        <rect id="Rectangle" fill="#0CFC04" x="1" y="9" width="2" height="1"></rect>
        <rect id="Rectangle-Copy" fill="#0CFC04" x="4" y="9" width="2" height="1"></rect>
        <rect id="Rectangle-Copy-9" fill="#0CFC04" x="7" y="9" width="2" height="1"></rect>
        <rect id="Rectangle-Copy-10" fill="#0CFC04" x="10" y="9" width="2" height="1"></rect>
        <rect id="Rectangle-Copy-11" fill="#0CFC04" x="13" y="9" width="2" height="1"></rect>
        <rect id="Rectangle-Copy-12" fill="#0CFC04" x="16" y="9" width="2" height="1"></rect>
        <rect id="Rectangle-Copy-13" fill="#0CFC04" x="19" y="9" width="2" height="1"></rect>
        <rect id="Rectangle-Copy-14" fill="#0CFC04" x="22" y="9" width="2" height="1"></rect>
    </g>
</svg>