<?xml version="1.0" encoding="UTF-8"?>
<svg width="32px" height="28px" viewBox="0 0 32 28" version="1.1" xmlns="http://www.w3.org/2000/svg" xmlns:xlink="http://www.w3.org/1999/xlink">
    <!-- Generator: Sketch 60.1 (88133) - https://sketch.com -->
    <title>_Align Center</title>
    <desc>Created with Sketch.</desc>
    <g id="_Align-Center" stroke="none" stroke-width="1" fill="none" fill-rule="evenodd">
        <path d="M18,5 L18,8 L22,8 L22,15 L18,15 L18,17 L27,17 L27,24 L18,24 L18,27 L17,27 L17,24 L8,24 L8,17 L17,17 L17,15 L13,15 L13,8 L17,8 L17,5 L18,5 Z M17,9 L14,9 L14,14 L17,14 L17,9 Z M21,9 L18,9 L18,14 L21,14 L21,9 Z" id="Combined-Shape" fill="#FFFFFF"></path>
    </g>
</svg>