<?xml version="1.0" encoding="UTF-8"?>
<svg width="28px" height="18px" viewBox="0 0 28 18" version="1.1" xmlns="http://www.w3.org/2000/svg" xmlns:xlink="http://www.w3.org/1999/xlink">
    <!-- Generator: Sketch 60.1 (88133) - https://sketch.com -->
    <title>Duplicate Horizontal</title>
    <desc>Created with Sketch.</desc>
    <g id="Duplicate-Horizontal" stroke="none" stroke-width="1" fill="none" fill-rule="evenodd">
        <rect id="Rectangle-Copy-5" stroke="#878787" x="0.5" y="0.5" width="24" height="17"></rect>
        <rect id="Rectangle-Copy" fill="#878787" x="1" y="8" width="11" height="1"></rect>
        <rect id="Rectangle-Copy" fill="#878787" transform="translate(12.500000, 9.000000) scale(-1, 1) translate(-12.500000, -9.000000) " x="12" y="1" width="1" height="16"></rect>
        <rect id="Rectangle-Copy" fill="#0CFC04" x="13" y="8" width="2" height="1"></rect>
        <rect id="Rectangle-Copy-7" fill="#0CFC04" x="16" y="8" width="2" height="1"></rect>
        <rect id="Rectangle-Copy-8" fill="#0CFC04" x="19" y="8" width="2" height="1"></rect>
        <g id="Arrow-(hollow-red)" transform="translate(23.000000, 8.500000) rotate(-360.000000) translate(-23.000000, -8.500000) translate(21.000000, 5.000000)" stroke="#0CFC04">
            <polygon id="Path-2" points="0.5 0.5 3.5 3.5 0.5 6.5"></polygon>
        </g>
        <g id="Icon_Point" transform="translate(11.000000, 7.000000)" fill="#0CFC04">
            <path d="M3,0 L3,3 L0,3 L0,0 L3,0 Z M2,1 L1,1 L1,2 L2,2 L2,1 Z" id="Combined-Shape"></path>
        </g>
    </g>
</svg>