<?xml version="1.0" encoding="UTF-8"?>
<svg width="480px" height="560px" viewBox="0 0 480 560" version="1.1" xmlns="http://www.w3.org/2000/svg" xmlns:xlink="http://www.w3.org/1999/xlink">
    <!-- Generator: Sketch 51.2 (57519) - http://www.bohemiancoding.com/sketch -->
    <title>Slice 1</title>
    <desc>Created with Sketch.</desc>
    <defs></defs>
    <g id="Page-1" stroke="none" stroke-width="1" fill="none" fill-rule="evenodd">
        <path d="M421.421356,138.578644 L364.852814,195.147186 C343.137085,173.431458 313.137085,160 280,160 C213.72583,160 160,213.72583 160,280 C160,346.27417 213.72583,400 280,400 C346.27417,400 400,346.27417 400,280 L480,280 C480,390.45695 390.45695,480 280,480 C169.54305,480 80,390.45695 80,280 C80,169.54305 169.54305,80 280,80 C335.228475,80 385.228475,102.385763 421.421356,138.578644 Z" id="Combined-Shape-Copy" fill="#86C7E9"></path>
        <path d="M477.989899,82.0101013 L421.421356,138.578644 C385.228475,102.385763 335.228475,80 280,80 C169.54305,80 80,169.54305 80,280 C80,390.45695 169.54305,480 280,480 C335.228475,480 385.228475,457.614237 421.421356,421.421356 L477.989899,477.989899 C427.319865,528.659932 357.319865,560 280,560 C125.36027,560 0,434.63973 0,280 C0,125.36027 125.36027,0 280,0 C357.319865,0 427.319865,31.3400675 477.989899,82.0101013 Z" id="Combined-Shape-Copy-2" fill="#13889B"></path>
        <circle id="Oval-8-Copy" fill="#21BED3" cx="280" cy="280" r="40"></circle>
    </g>
</svg>