<?xml version="1.0" encoding="UTF-8"?>
<svg width="26px" height="18px" viewBox="0 0 26 18" version="1.1" xmlns="http://www.w3.org/2000/svg" xmlns:xlink="http://www.w3.org/1999/xlink">
    <!-- Generator: Sketch 53.2 (72643) - https://sketchapp.com -->
    <title>Match Horizontal Copy</title>
    <desc>Created with Sketch.</desc>
    <g id="Match-Horizontal-Copy" stroke="none" stroke-width="1" fill="none" fill-rule="evenodd">
        <rect id="Rectangle" fill="#8B8A8B" x="12" y="1" width="1" height="7"></rect>
        <rect id="Rectangle" fill="#8B8A8B" x="1" y="8" width="23" height="1"></rect>
        <rect id="Rectangle" stroke="#878787" x="0.5" y="1.5" width="24" height="16"></rect>
        <rect id="Rectangle-Copy-2" stroke="#878687" fill="#FFFFFF" transform="translate(12.500000, 16.000000) scale(-1, 1) translate(-12.500000, -16.000000) " x="12.5" y="15.5" width="1" height="1"></rect>
        <rect id="Rectangle-Copy-3" stroke="#878687" fill="#FFFFFF" transform="translate(12.500000, 13.000000) scale(-1, 1) translate(-12.500000, -13.000000) " x="12.5" y="12.5" width="1" height="1"></rect>
        <rect id="Rectangle-Copy-4" stroke="#878687" fill="#FFFFFF" transform="translate(12.500000, 10.000000) scale(-1, 1) translate(-12.500000, -10.000000) " x="12.5" y="9.5" width="1" height="1"></rect>
        <g id="Icon_Point" transform="translate(11.000000, 7.000000)" fill="#0CFC04">
            <path d="M0,0 L3,0 L3,3 L0,3 L0,0 Z M1,1 L1,2 L2,2 L2,1 L1,1 Z" id="Combined-Shape"></path>
        </g>
        <g id="Icon_Point" transform="translate(11.000000, 0.000000)" fill="#0CFC04">
            <path d="M0,0 L3,0 L3,3 L0,3 L0,0 Z M1,1 L1,2 L2,2 L2,1 L1,1 Z" id="Combined-Shape"></path>
        </g>
    </g>
</svg>