<?xml version="1.0" encoding="UTF-8"?>
<svg width="26px" height="18px" viewBox="0 0 26 18" version="1.1" xmlns="http://www.w3.org/2000/svg" xmlns:xlink="http://www.w3.org/1999/xlink">
    <!-- Generator: Sketch 53.2 (72643) - https://sketchapp.com -->
    <title>Match Horizontal</title>
    <desc>Created with Sketch.</desc>
    <g id="Match-Horizontal" stroke="none" stroke-width="1" fill="none" fill-rule="evenodd">
        <rect id="Rectangle" stroke="#979797" fill="#D8D8D8" x="12.5" y="1.5" width="1" height="15"></rect>
        <rect id="Rectangle-Copy" stroke="#878687" fill="#FFFFFF" x="13.5" y="8.5" width="10" height="1"></rect>
        <rect id="Rectangle-Copy-2" stroke="#878687" fill="#FFFFFF" x="1.5" y="8.5" width="1" height="1"></rect>
        <rect id="Rectangle-Copy-3" stroke="#878687" fill="#FFFFFF" x="4.5" y="8.5" width="1" height="1"></rect>
        <rect id="Rectangle-Copy-4" stroke="#878687" fill="#FFFFFF" x="7.5" y="8.5" width="1" height="1"></rect>
        <rect id="Rectangle-Copy-7" stroke="#878687" fill="#FFFFFF" x="10.5" y="8.5" width="1" height="1"></rect>
        <rect id="Rectangle-Copy-5" stroke="#878687" x="0.5" y="0.5" width="24" height="17"></rect>
        <g id="Icon_Point" transform="translate(11.000000, 7.000000)" fill="#0CFC04">
            <path d="M0,0 L3,0 L3,3 L0,3 L0,0 Z M1,1 L1,2 L2,2 L2,1 L1,1 Z" id="Combined-Shape"></path>
        </g>
        <g id="Icon_Point" transform="translate(23.000000, 7.000000)" fill="#0CFC04">
            <path d="M0,0 L3,0 L3,3 L0,3 L0,0 Z M1,1 L1,2 L2,2 L2,1 L1,1 Z" id="Combined-Shape"></path>
        </g>
    </g>
</svg>