<?xml version="1.0" encoding="UTF-8"?>
<svg width="25px" height="18px" viewBox="0 0 25 18" version="1.1" xmlns="http://www.w3.org/2000/svg" xmlns:xlink="http://www.w3.org/1999/xlink">
    <!-- Generator: Sketch 53.2 (72643) - https://sketchapp.com -->
    <title>Merge Horizontally</title>
    <desc>Created with Sketch.</desc>
    <g id="Merge-Horizontally" stroke="none" stroke-width="1" fill="none" fill-rule="evenodd">
        <rect id="Rectangle" fill="#878687" x="1" y="8" width="23" height="1"></rect>
        <rect id="Rectangle-Copy-5" stroke="#878687" x="0.5" y="0.5" width="23" height="17"></rect>
        <g id="Icon_Point" transform="translate(5.000000, 3.000000)" fill="#0CFC04">
            <path d="M0,0 L3,0 L3,3 L0,3 L0,0 Z M1,1 L1,2 L2,2 L2,1 L1,1 Z" id="Combined-Shape"></path>
        </g>
        <g id="Icon_Point" transform="translate(17.000000, 3.000000)" fill="#0CFC04">
            <path d="M0,0 L3,0 L3,3 L0,3 L0,0 Z M1,1 L1,2 L2,2 L2,1 L1,1 Z" id="Combined-Shape"></path>
        </g>
        <rect id="Rectangle" fill="#0CFC04" x="8" y="4" width="9" height="1"></rect>
        <rect id="Rectangle" fill="#D0021B" x="12" y="1" width="1" height="7"></rect>
        <rect id="Rectangle-Copy" fill="#878687" x="12" y="9" width="1" height="8"></rect>
    </g>
</svg>